:FULLY-SPECIFIED
:FORCE-ALL-JOINTS-BE-3DOF
:DEGREES
2344
root 0.76907 14.0456 -18.171 -160.991 -59.1721 167.547
lfemur -3.92523 -4.79205 -0.0254931
ltibia 34.3036 -0 0
lfoot -11.7804 27.0738 -0.0543985
ltoes -45.2081 0 0
rfemur -67.8207 -12.4881 12.3066
rtibia 78.8977 -0 0
rfoot -10.7085 -16.2405 0.115664
rtoes 5.45489 -0 0
lowerback 19.398 3.40476 -3.74567
upperback 0.211931 3.46225 -0.669924
thorax -10.8649 1.74751 0.413564
lowerneck -4.98612 -3.00946 -5.27388
upperneck 2.79819 -3.71779 0.678976
head 2.02914 -1.886 1.07755
lclavicle 0 0 0
lhumerus -38.0933 -21.709 89.4193
lradius 101.264 -0 0
lwrist 48.4558 0 0
lhand -24.0414 43.4464 0.0220846
lfingers 0 0 0
lthumb 2.43783 73.3551 0.0250144
rclavicle 0 0 0
rhumerus 48.7844 13.0863 -47.1624
rradius 47.6589 -0 0
rwrist 6.91953 0 0
rhand -7.2058 -38.1539 -0.0192053
rfingers 0 0 0
rthumb 18.6712 -67.258 -0.0120899
2345
root 0.771102 14.0693 -18.3161 -159.264 -62.8192 165.922
lfemur -5.19286 -4.30114 -0.451416
ltibia 35.8737 -0 0
lfoot -11.543 26.9094 -0.0647066
ltoes -44.4121 0 0
rfemur -67.2471 -11.9762 12.4763
rtibia 78.8017 -0 0
rfoot -10.9662 -16.5618 0.137591
rtoes 5.14244 -0 0
lowerback 19.3615 3.35213 -3.57337
upperback 0.168212 3.44219 -0.624381
thorax -10.8852 1.73197 0.371751
lowerneck -5.0096 -2.65264 -4.99059
upperneck 2.98352 -3.24488 0.354215
head 2.09689 -1.6533 0.956733
lclavicle 0 0 0
lhumerus -35.8841 -23.0644 89.2128
lradius 101.572 -0 0
lwrist 46.1584 0 0
lhand -24.4453 43.4073 0.0262712
lfingers 0 0 0
lthumb 2.04786 73.3092 0.029756
rclavicle 0 0 0
rhumerus 47.9228 14.5114 -47.1333
rradius 48.995 -0 0
rwrist 6.23065 0 0
rhand -6.99984 -38.2208 -0.0228439
rfingers 0 0 0
rthumb 18.869 -67.3019 -0.0143804
2346
root 0.771369 14.0939 -18.468 -156.879 -66.6488 163.644
lfemur -6.53823 -3.79172 -0.913874
ltibia 37.5361 -0 0
lfoot -11.2917 26.7354 -0.0748791
ltoes -43.5693 0 0
rfemur -66.6393 -11.4361 12.6613
rtibia 78.7 -0 0
rfoot -11.2392 -16.9022 0.159232
rtoes 4.81159 -0 0
lowerback 19.3226 3.29653 -3.3909
upperback 0.121904 3.42099 -0.576141
thorax -10.9066 1.7155 0.327483
lowerneck -5.03252 -2.2747 -4.69087
upperneck 3.17675 -2.743 0.0121629
head 2.16808 -1.40674 0.829123
lclavicle 0 0 0
lhumerus -33.5138 -24.4904 88.9293
lradius 101.898 -0 0
lwrist 43.7257 0 0
lhand -24.873 43.3658 0.0304031
lfingers 0 0 0
lthumb 1.63493 73.2605 0.0344358
rclavicle 0 0 0
rhumerus 47.005 16.0207 -47.1267
rradius 50.4097 -0 0
rwrist 5.50122 0 0
rhand -6.78175 -38.2917 -0.0264344
rfingers 0 0 0
rthumb 19.0784 -67.3483 -0.0166406
2347
root 0.769972 14.1192 -18.626 -153.405 -70.6157 160.28
lfemur -7.95532 -3.26835 -1.41224
ltibia 39.2828 -0 0
lfoot -11.0276 26.5525 -0.084744
ltoes -42.6839 0 0
rfemur -65.9999 -10.8708 12.8616
rtibia 78.5932 -0 0
rfoot -11.5261 -17.2599 0.180222
rtoes 4.46399 -0 0
lowerback 19.2815 3.23824 -3.19916
upperback 0.0732334 3.39875 -0.525442
thorax -10.9291 1.69818 0.28098
lowerneck -5.05446 -1.8775 -4.37621
upperneck 3.37645 -2.21449 -0.345242
head 2.24228 -1.14754 0.695395
lclavicle 0 0 0
lhumerus -30.9851 -25.9756 88.5576
lradius 102.241 -0 0
lwrist 41.1699 0 0
lhand -25.3224 43.3222 0.0344106
lfingers 0 0 0
lthumb 1.20109 73.2093 0.0389746
rclavicle 0 0 0
rhumerus 46.0329 17.6063 -47.1469
rradius 51.896 -0 0
rwrist 4.73487 0 0
rhand -6.55262 -38.3662 -0.0299162
rfingers 0 0 0
rthumb 19.2984 -67.3972 -0.0188323
2348
root 0.767014 14.1452 -18.7895 -147.938 -74.6454 154.927
lfemur -9.4381 -2.73553 -1.94567
ltibia 41.1054 -0 0
lfoot -10.752 26.3615 -0.0941387
ltoes -41.7599 0 0
rfemur -65.3319 -10.2832 13.0771
rtibia 78.4817 -0 0
rfoot -11.8256 -17.6333 0.200213
rtoes 4.10127 -0 0
lowerback 19.2385 3.17757 -2.99905
upperback 0.0224266 3.37559 -0.47252
thorax -10.9526 1.68009 0.232464
lowerneck -5.07503 -1.46291 -4.0481
upperneck 3.58125 -1.66169 -0.7161
head 2.31905 -0.876881 0.556222
lclavicle 0 0 0
lhumerus -28.2996 -27.5078 88.0861
lradius 102.599 -0 0
lwrist 38.5029 0 0
lhand -25.7913 43.2766 0.0382275
lfingers 0 0 0
lthumb 0.748383 73.1559 0.0432974
rclavicle 0 0 0
rhumerus 45.0083 19.2602 -47.1986
rradius 53.447 -0 0
rwrist 3.93519 0 0
rhand -6.31352 -38.4439 -0.0332319
rfingers 0 0 0
rthumb 19.528 -67.4481 -0.0209194
2349
root 0.762596 14.1718 -18.9578 -138.356 -78.5806 145.462
lfemur -10.9805 -2.1977 -2.51308
ltibia 42.9957 -0 0
lfoot -10.4661 26.1635 -0.102912
ltoes -40.8016 0 0
rfemur -64.6379 -9.67648 13.3074
rtibia 78.3661 -0 0
rfoot -12.1364 -18.0206 0.218884
rtoes 3.72508 -0 0
lowerback 19.1936 3.1148 -2.79147
upperback -0.0302889 3.35163 -0.417611
thorax -10.9769 1.66131 0.182153
lowerneck -5.09385 -1.0328 -3.70802
upperneck 3.78981 -1.08697 -1.09855
head 2.39797 -0.595972 0.41227
lclavicle 0 0 0
lhumerus -25.4584 -29.0739 87.5038
lradius 102.97 -0 0
lwrist 35.7369 0 0
lhand -26.2776 43.2293 0.0417924
lfingers 0 0 0
lthumb 0.278856 73.1004 0.0473347
rclavicle 0 0 0
rhumerus 43.9325 20.9743 -47.2863
rradius 55.0555 -0 0
rwrist 3.10581 0 0
rhand -6.06553 -38.5245 -0.036328
rfingers 0 0 0
rthumb 19.7661 -67.501 -0.0228683
2350
root 0.756821 14.1988 -19.1302 -119.252 -81.9866 126.477
lfemur -12.5765 -1.65917 -3.11311
ltibia 44.9454 -0 0
lfoot -10.1712 25.9591 -0.110926
ltoes -39.8132 0 0
rfemur -63.9208 -9.05359 13.5524
rtibia 78.2469 -0 0
rfoot -12.4571 -18.4203 0.235941
rtoes 3.33706 -0 0
lowerback 19.1471 3.05023 -2.57732
upperback -0.0846857 3.32696 -0.360953
thorax -11.002 1.64191 0.130269
lowerneck -5.11058 -0.589047 -3.35742
upperneck 4.00089 -0.492722 -1.49079
head 2.47864 -0.306019 0.264202
lclavicle 0 0 0
lhumerus -22.4618 -30.6604 86.7999
lradius 103.353 -0 0
lwrist 32.8838 0 0
lhand -26.7792 43.1806 0.0450489
lfingers 0 0 0
lthumb -0.205447 73.0432 0.0510228
rclavicle 0 0 0
rhumerus 42.8063 22.7405 -47.4144
rradius 56.7147 -0 0
rwrist 2.25033 0 0
rhand -5.80974 -38.6077 -0.039156
rfingers 0 0 0
rthumb 20.0117 -67.5555 -0.0246484
2351
root 0.749789 14.2262 -19.3062 -82.6449 -83.5853 89.9928
lfemur -14.2198 -1.1241 -3.74412
ltibia 46.9464 -0 0
lfoot -9.86847 25.7494 -0.118056
ltoes -38.7987 0 0
rfemur -63.1833 -8.41754 13.8116
rtibia 78.1245 -0 0
rfoot -12.7864 -18.8305 0.251119
rtoes 2.93884 -0 0
lowerback 19.0991 2.98414 -2.35751
upperback -0.140536 3.3017 -0.302783
thorax -11.0277 1.62198 0.0770302
lowerneck -5.12493 -0.133537 -2.99777
upperneck 4.21327 0.118622 -1.89104
head 2.56064 -0.00823029 0.112669
lclavicle 0 0 0
lhumerus -19.3102 -32.2525 85.9641
lradius 103.745 -0 0
lwrist 29.9558 0 0
lhand -27.294 43.1305 0.0479467
lfingers 0 0 0
lthumb -0.70248 72.9844 0.0543046
rclavicle 0 0 0
rhumerus 41.63 24.5502 -47.5872
rradius 58.4175 -0 0
rwrist 1.37238 0 0
rhand -5.54722 -38.693 -0.0416722
rfingers 0 0 0
rthumb 20.2638 -67.6115 -0.0262323
2352
root 0.741604 14.2539 -19.485 -45.2182 -81.9685 52.691
lfemur -15.9041 -0.596468 -4.40417
ltibia 48.9904 -0 0
lfoot -9.55925 25.5351 -0.124195
ltoes -37.7625 0 0
rfemur -62.4282 -7.77127 14.0844
rtibia 77.9995 -0 0
rfoot -13.1228 -19.2496 0.264189
rtoes 2.53206 -0 0
lowerback 19.0499 2.91682 -2.13292
upperback -0.197611 3.27595 -0.243339
thorax -11.0539 1.60159 0.0226572
lowerneck -5.13663 0.331846 -2.63049
upperneck 4.42582 0.744616 -2.29759
head 2.6436 0.29618 -0.0416825
lclavicle 0 0 0
lhumerus -16.0038 -33.8353 84.9875
lradius 104.146 -0 0
lwrist 26.9649 0 0
lhand -27.8199 43.0793 0.0504421
lfingers 0 0 0
lthumb -1.2102 72.9244 0.0571306
rclavicle 0 0 0
rhumerus 40.4037 26.395 -47.8093
rradius 60.1568 -0 0
rwrist 0.475552 0 0
rhand -5.27905 -38.7802 -0.0438386
rfingers 0 0 0
rthumb 20.5213 -67.6686 -0.027596
